<svg width="616" height="239" viewBox="0 0 616 239" fill="none" xmlns="http://www.w3.org/2000/svg">
<path d="M98.7567 15.3179L98.6882 73.3763L90.9539 73.3672L91.0225 15.3088L98.7567 15.3179ZM116.259 39.9163L116.219 73.397L108.485 73.3879L108.524 39.9072L116.259 39.9163ZM107.372 25.9842C107.374 24.6321 107.868 23.4639 108.854 22.4797C109.841 21.4955 111.022 21.0042 112.397 21.0058C113.795 21.0074 114.986 21.5015 115.97 22.4881C116.954 23.4518 117.445 24.6325 117.444 26.0304C117.442 27.4283 116.948 28.6194 115.961 29.6036C114.998 30.5879 113.817 31.0792 112.419 31.0775C111.021 31.0759 109.83 30.5818 108.846 29.5952C107.862 28.6087 107.37 27.405 107.372 25.9842ZM145.505 45.657L139.107 49.0525C138.101 46.9889 136.853 45.9562 135.364 45.9544C134.653 45.9536 134.046 46.1935 133.541 46.6741C133.036 47.1318 132.784 47.7274 132.783 48.4607C132.781 49.744 134.269 51.0176 137.247 52.2815C141.347 54.0509 144.106 55.6812 145.525 57.1725C146.944 58.6637 147.652 60.6697 147.649 63.1905C147.646 66.4217 146.451 69.1244 144.065 71.2987C141.748 73.3584 138.951 74.3863 135.674 74.3825C130.059 74.3758 126.087 71.6326 123.756 66.1529L130.359 63.1014C131.274 64.7066 131.972 65.7272 132.452 66.1632C133.391 67.0351 134.513 67.4718 135.82 67.4734C138.432 67.4764 139.74 66.2863 139.742 63.903C139.744 62.5281 138.737 61.2436 136.722 60.0495C135.943 59.659 135.165 59.28 134.386 58.9124C133.607 58.5448 132.817 58.1658 132.015 57.7753C129.771 56.6726 128.191 55.5708 127.276 54.4697C126.109 53.0704 125.526 51.2708 125.529 49.0709C125.532 46.1605 126.532 43.7555 128.528 41.8558C130.57 39.9561 133.046 39.008 135.956 39.0115C140.242 39.0165 143.424 41.2317 145.505 45.657ZM174.104 45.6908L167.706 49.0863C166.701 47.0226 165.453 45.9899 163.963 45.9882C163.253 45.9873 162.645 46.2272 162.141 46.7079C161.636 47.1656 161.383 47.7611 161.382 48.4945C161.381 49.7778 162.869 51.0514 165.846 52.3153C169.946 54.0847 172.706 55.715 174.125 57.2062C175.544 58.6975 176.252 60.7035 176.249 63.2243C176.245 66.4555 175.05 69.1582 172.664 71.3324C170.347 73.3922 167.55 74.4201 164.273 74.4162C158.659 74.4096 154.686 71.6664 152.355 66.1867L158.959 63.1351C159.873 64.7403 160.571 65.7609 161.052 66.1969C161.99 67.0688 163.113 67.5056 164.419 67.5071C167.032 67.5102 168.339 66.3201 168.342 63.9368C168.344 62.5618 167.337 61.2773 165.322 60.0833C164.543 59.6928 163.764 59.3138 162.985 58.9462C162.207 58.5786 161.417 58.1996 160.615 57.809C158.37 56.7064 156.791 55.6046 155.875 54.5035C154.708 53.1042 154.126 51.3046 154.128 49.1046C154.132 46.1943 155.132 43.7892 157.128 41.8895C159.169 39.9899 161.645 39.0418 164.556 39.0452C168.841 39.0503 172.024 41.2655 174.104 45.6908ZM192.728 51.9345L192.702 73.4873L184.693 73.4778L184.756 20.4037L193.831 20.4145C198.276 20.4197 201.633 20.733 203.901 21.3545C206.192 21.9759 208.207 23.147 209.947 24.8678C212.991 27.8505 214.511 31.6106 214.505 36.148C214.5 41.0063 212.868 44.8543 209.611 47.692C206.353 50.5298 201.963 51.9455 196.44 51.9389L192.728 51.9345ZM192.736 44.5097L195.727 44.5132C203.083 44.5219 206.765 41.6961 206.771 36.0357C206.778 30.5588 202.988 27.8158 195.403 27.8068L192.756 27.8037L192.736 44.5097ZM229.007 40.0494L228.984 59.2647C228.978 64.8105 231.163 67.5859 235.54 67.5911C239.917 67.5963 242.109 64.826 242.115 59.2803L242.138 40.0649L249.872 40.0741L249.849 59.4613C249.846 62.1425 249.511 64.4566 248.844 66.4037C248.2 68.1446 247.087 69.713 245.504 71.1091C242.889 73.3747 239.565 74.5051 235.532 74.5004C231.521 74.4956 228.211 73.3574 225.601 71.0856C223.999 69.6858 222.866 68.1147 222.204 66.3723C221.564 64.8132 221.246 62.4983 221.25 59.4275L221.273 40.0403L229.007 40.0494ZM267.398 15.517L267.329 73.5754L259.595 73.5663L259.663 15.5079L267.398 15.517ZM296.615 45.8354L290.217 49.231C289.211 47.1673 287.963 46.1346 286.474 46.1328C285.763 46.132 285.156 46.3719 284.651 46.8525C284.146 47.3103 283.894 47.9058 283.893 48.6391C283.891 49.9224 285.379 51.196 288.357 52.46C292.457 54.2294 295.216 55.8597 296.635 57.3509C298.054 58.8421 298.762 60.8482 298.759 63.3689C298.756 66.6001 297.561 69.3029 295.175 71.4771C292.858 73.5368 290.061 74.5648 286.784 74.5609C281.169 74.5543 277.197 71.8111 274.866 66.3313L281.469 63.2798C282.384 64.885 283.082 65.9056 283.562 66.3416C284.501 67.2135 285.623 67.6502 286.93 67.6518C289.542 67.6549 290.85 66.4648 290.852 64.0815C290.854 62.7065 289.847 61.422 287.832 60.228C287.053 59.8375 286.275 59.4584 285.496 59.0909C284.717 58.7233 283.927 58.3442 283.125 57.9537C280.881 56.8511 279.301 55.7492 278.386 54.6482C277.219 53.2489 276.636 51.4493 276.639 49.2493C276.642 46.3389 277.642 43.9339 279.638 42.0342C281.68 40.1346 284.156 39.1865 287.066 39.1899C291.352 39.195 294.534 41.4101 296.615 45.8354ZM336.233 58.7383L312.24 58.7099C312.443 61.4601 313.334 63.6497 314.913 65.2786C316.492 66.8846 318.52 67.6891 320.995 67.692C322.92 67.6943 324.513 67.2378 325.774 66.3227C327.013 65.4075 328.424 63.7133 330.008 61.2403L336.535 64.8917C335.525 66.6092 334.457 68.086 333.333 69.3222C332.209 70.5354 331.004 71.5423 329.72 72.3429C328.436 73.1205 327.049 73.6918 325.559 74.0567C324.069 74.4216 322.453 74.603 320.711 74.6009C315.716 74.595 311.707 72.9862 308.686 69.7743C305.665 66.5396 304.158 62.2524 304.164 56.9129C304.17 51.6193 305.642 47.3357 308.579 44.0621C311.539 40.8344 315.46 39.2234 320.341 39.2292C325.268 39.235 329.162 40.8094 332.022 43.9523C334.86 47.0722 336.276 51.3936 336.27 56.9165L336.233 58.7383ZM328.3 52.404C327.228 48.2778 324.629 46.2123 320.504 46.2074C319.565 46.2063 318.682 46.3542 317.857 46.6511C317.032 46.9252 316.275 47.3368 315.587 47.8859C314.922 48.4122 314.348 49.0532 313.866 49.8089C313.384 50.5645 313.016 51.4235 312.763 52.3857L328.3 52.404ZM89.5581 89.6334L94.9396 103.497L100.597 88.6394L105.977 103.51L111.727 89.6596L115.124 89.6636L105.833 111.701L100.52 97.0047L94.9434 111.701L86.161 89.6294L89.5581 89.6334ZM117.127 87.719L120.148 87.7226L120.136 98.4109C121.211 97.4454 122.398 96.9634 123.696 96.9649C125.173 96.9666 126.354 97.4469 127.239 98.4058C127.99 99.2392 128.364 100.569 128.362 102.395L128.353 110.411L125.331 110.408L125.341 102.674C125.342 101.626 125.155 100.87 124.779 100.404C124.413 99.9287 123.818 99.6908 122.994 99.6899C121.938 99.6886 121.195 100.014 120.764 100.667C120.343 101.329 120.131 102.466 120.129 104.077L120.122 110.402L117.1 110.398L117.127 87.719ZM144.11 104.602L134.738 104.591C134.817 105.666 135.165 106.521 135.782 107.157C136.399 107.785 137.191 108.099 138.157 108.1C138.909 108.101 139.532 107.923 140.024 107.565C140.508 107.208 141.06 106.546 141.678 105.58L144.228 107.006C143.833 107.677 143.416 108.254 142.977 108.737C142.538 109.211 142.068 109.604 141.566 109.917C141.064 110.22 140.522 110.444 139.94 110.586C139.358 110.729 138.727 110.8 138.047 110.799C136.095 110.796 134.53 110.168 133.349 108.913C132.169 107.65 131.58 105.975 131.583 103.889C131.585 101.822 132.16 100.148 133.308 98.8695C134.464 97.6087 135.995 96.9794 137.902 96.9817C139.827 96.9839 141.348 97.5989 142.465 98.8266C143.574 100.045 144.127 101.733 144.124 103.891L144.11 104.602ZM141.011 102.128C140.592 100.516 139.577 99.7094 137.966 99.7075C137.599 99.7071 137.254 99.7649 136.932 99.8809C136.609 99.9879 136.314 100.149 136.045 100.363C135.785 100.569 135.561 100.819 135.373 101.114C135.184 101.41 135.041 101.745 134.942 102.121L141.011 102.128ZM147.435 97.3555L150.456 97.359L150.455 98.5272C151.011 97.946 151.503 97.5483 151.933 97.3339C152.372 97.1107 152.892 96.9994 153.491 97.0001C154.288 97.001 155.12 97.2616 155.988 97.7818L154.602 100.546C154.029 100.134 153.47 99.9273 152.924 99.9266C151.277 99.9247 150.452 101.168 150.449 103.657L150.441 110.437L147.42 110.434L147.435 97.3555ZM169.434 104.632L160.062 104.621C160.141 105.696 160.489 106.551 161.106 107.187C161.723 107.814 162.515 108.129 163.482 108.13C164.234 108.131 164.856 107.952 165.349 107.595C165.833 107.237 166.384 106.576 167.003 105.61L169.552 107.036C169.158 107.707 168.741 108.284 168.301 108.767C167.862 109.241 167.392 109.634 166.89 109.947C166.388 110.25 165.847 110.474 165.265 110.616C164.683 110.759 164.051 110.829 163.371 110.829C161.42 110.826 159.854 110.198 158.674 108.943C157.494 107.68 156.905 106.005 156.907 103.919C156.91 101.851 157.485 100.178 158.632 98.8994C159.788 97.6386 161.32 97.0093 163.226 97.0116C165.151 97.0138 166.672 97.6288 167.789 98.8565C168.898 100.075 169.451 101.763 169.448 103.921L169.434 104.632ZM166.335 102.158C165.917 100.546 164.901 99.7393 163.29 99.7374C162.923 99.737 162.578 99.7948 162.256 99.9108C161.934 100.018 161.638 100.179 161.369 100.393C161.109 100.599 160.885 100.849 160.697 101.144C160.509 101.439 160.365 101.775 160.266 102.151L166.335 102.158ZM184.267 97.399L184.251 110.477L181.23 110.474L181.246 97.3954L184.267 97.399ZM180.795 91.9567C180.796 91.4286 180.989 90.9723 181.374 90.5878C181.76 90.2033 182.221 90.0114 182.758 90.012C183.304 90.0127 183.769 90.2057 184.154 90.5911C184.538 90.9675 184.73 91.4287 184.73 91.9748C184.729 92.5208 184.536 92.9861 184.151 93.3706C183.774 93.755 183.313 93.947 182.767 93.9463C182.221 93.9457 181.756 93.7527 181.371 93.3673C180.987 92.9819 180.795 92.5117 180.795 91.9567ZM195.691 99.6414L193.192 100.968C192.799 100.162 192.312 99.7583 191.73 99.7576C191.452 99.7573 191.215 99.851 191.018 100.039C190.821 100.218 190.722 100.45 190.721 100.737C190.721 101.238 191.302 101.735 192.465 102.229C194.067 102.92 195.145 103.557 195.699 104.14C196.253 104.722 196.53 105.506 196.529 106.49C196.527 107.753 196.061 108.808 195.129 109.658C194.223 110.462 193.131 110.864 191.851 110.862C189.658 110.86 188.106 109.788 187.195 107.648L189.775 106.456C190.132 107.083 190.405 107.481 190.592 107.652C190.959 107.992 191.397 108.163 191.908 108.163C192.928 108.165 193.439 107.7 193.44 106.769C193.441 106.232 193.047 105.73 192.26 105.264C191.956 105.111 191.652 104.963 191.348 104.819C191.044 104.676 190.735 104.528 190.422 104.375C189.545 103.944 188.928 103.514 188.57 103.084C188.114 102.537 187.887 101.834 187.888 100.975C187.889 99.8381 188.28 98.8986 189.059 98.1566C189.857 97.4145 190.824 97.0442 191.961 97.0455C193.635 97.0475 194.878 97.9128 195.691 99.6414ZM210.863 100.25L210.851 110.509L207.83 110.505L207.842 100.247L206.553 100.245L206.556 97.4253L207.845 97.4268L207.851 92.6332L210.872 92.6368L210.867 97.4304L213.216 97.4331L213.213 100.253L210.863 100.25ZM215.846 87.8356L218.867 87.8391L218.855 98.5274C219.93 97.5619 221.117 97.0799 222.415 97.0815C223.892 97.0832 225.073 97.5635 225.958 98.5224C226.709 99.3558 227.083 100.686 227.081 102.512L227.072 110.528L224.05 110.524L224.06 102.79C224.061 101.743 223.874 100.986 223.498 100.52C223.132 100.045 222.537 99.8074 221.713 99.8064C220.657 99.8052 219.914 100.131 219.483 100.784C219.062 101.446 218.85 102.583 218.848 104.194L218.841 110.518L215.819 110.515L215.846 87.8356ZM242.829 104.719L233.457 104.708C233.536 105.782 233.884 106.638 234.501 107.274C235.118 107.901 235.91 108.215 236.876 108.217C237.628 108.217 238.251 108.039 238.744 107.682C239.227 107.324 239.779 106.662 240.397 105.696L242.947 107.123C242.552 107.794 242.135 108.37 241.696 108.853C241.257 109.327 240.787 109.721 240.285 110.033C239.783 110.337 239.241 110.56 238.659 110.703C238.077 110.845 237.446 110.916 236.766 110.915C234.814 110.913 233.249 110.285 232.068 109.03C230.888 107.766 230.299 106.092 230.302 104.006C230.304 101.938 230.879 100.265 232.027 98.9861C233.183 97.7253 234.714 97.096 236.621 97.0982C238.546 97.1005 240.067 97.7155 241.184 98.9432C242.293 100.162 242.846 101.85 242.843 104.007L242.829 104.719ZM239.73 102.245C239.311 100.633 238.296 99.826 236.685 99.8241C236.318 99.8237 235.973 99.8814 235.651 99.9974C235.328 100.104 235.033 100.265 234.764 100.48C234.504 100.685 234.28 100.936 234.092 101.231C233.903 101.526 233.76 101.862 233.661 102.237L239.73 102.245ZM258.346 97.943L267.288 97.9535L267.298 89.8433L270.427 89.847L270.402 110.579L267.274 110.575L267.285 100.894L258.342 100.884L258.331 110.565L255.202 110.561L255.227 89.8291L258.355 89.8328L258.346 97.943ZM286.832 92.807L278.52 92.7972L278.514 97.7788L286.584 97.7883L286.581 100.729L278.511 100.719L278.502 107.648L286.814 107.658L286.811 110.598L275.37 110.585L275.395 89.8529L286.835 89.8664L286.832 92.807ZM303.104 105.582L294.229 105.572L291.913 110.604L288.543 110.601L298.827 88.5781L308.697 110.624L305.273 110.62L303.104 105.582ZM301.832 102.64L298.765 95.5872L295.534 102.633L301.832 102.64ZM315.889 92.8413L315.868 110.633L312.739 110.629L312.76 92.8376L307.993 92.832L307.997 89.8914L320.646 89.9063L320.642 92.8469L315.889 92.8413ZM329.253 100.967L332.288 100.971C332.286 102.332 331.922 103.428 331.196 104.259C330.255 105.341 329.05 105.882 327.582 105.88C326.293 105.878 325.215 105.429 324.348 104.533C323.472 103.628 323.034 102.522 323.036 101.215C323.037 100.177 323.311 99.3445 323.858 98.7186C324.414 98.0836 325.354 97.5298 326.679 97.0569C327.996 96.575 328.829 96.1866 329.178 95.8916C329.537 95.5967 329.716 95.1403 329.717 94.5227C329.718 93.905 329.53 93.4169 329.155 93.0584C328.788 92.6909 328.296 92.5069 327.679 92.5061C327.061 92.5054 326.568 92.6838 326.201 93.0415C325.833 93.3991 325.649 93.8868 325.649 94.5044C325.648 94.7819 325.702 95.1669 325.808 95.6594L322.68 95.6557C322.662 95.4229 322.644 95.217 322.627 95.038C322.618 94.8589 322.614 94.6978 322.614 94.5546C322.616 93.1402 323.096 91.9636 324.055 91.0248C325.005 90.086 326.205 89.6175 327.655 89.6192C329.114 89.6209 330.331 90.0968 331.306 91.0468C332.28 91.9968 332.767 93.1835 332.765 94.6068C332.763 96.0659 332.274 97.2425 331.297 98.1365C330.679 98.6998 329.515 99.2444 327.804 99.7706C326.64 100.127 326.058 100.691 326.057 101.46C326.056 101.675 326.096 101.881 326.177 102.078C326.266 102.266 326.382 102.432 326.525 102.575C326.668 102.719 326.834 102.831 327.022 102.912C327.219 102.992 327.424 103.033 327.639 103.033C328.624 103.034 329.162 102.346 329.253 100.967ZM325.819 109.141C325.82 108.639 326.004 108.205 326.371 107.839C326.739 107.472 327.178 107.289 327.688 107.29C328.198 107.29 328.637 107.474 329.003 107.842C329.37 108.209 329.553 108.648 329.552 109.158C329.552 109.678 329.367 110.121 329 110.487C328.642 110.845 328.207 111.023 327.697 111.023C327.169 111.022 326.726 110.843 326.368 110.484C326.002 110.117 325.819 109.669 325.819 109.141Z" fill="#FF847C"/>
<g filter="url(#filter0_b_29_205)">
<path fill-rule="evenodd" clip-rule="evenodd" d="M35.7159 17.3325L35.2046 17.1709L35.2045 17.1709C34.6931 17.0093 34.1818 16.8477 33.841 17.0093L29.75 15.8782L33.6705 14.2623C34.6932 13.7775 35.7159 13.4543 36.7386 13.1311L37.25 12.9695L37.7614 13.1311L39.2955 13.6159C44.2386 14.9087 49.3523 14.5855 54.4659 12.808C54.7216 12.7272 54.9773 12.606 55.233 12.4848C55.4887 12.3636 55.7444 12.2423 56 12.1616L56.5114 12H57.0227C58.2159 12.1616 59.2387 12.4848 60.2614 12.808L63.8409 13.9391L58.5569 16.363C54.2955 17.9789 50.0341 18.9485 45.6023 18.9485C41.3409 18.9485 37.9318 18.1405 35.7159 17.3325ZM23.8471 27.2195L23.8471 27.2195L23.8472 27.2194C24.0583 27.1548 24.2654 27.0915 24.466 27.0281C29.0682 25.8969 34.0114 26.0585 38.9546 27.836C42.1932 28.9672 45.4319 29.452 49.0114 29.452C56.1705 29.452 63.3296 27.0281 69.9773 22.3419L72.5341 20.4028L73.3864 19.7564L71.8523 18.6252C71.3409 18.1405 70.6591 17.6557 69.9773 17.3325L68.9546 16.6862L68.1023 17.3325C67.9318 17.4133 67.804 17.5345 67.6762 17.6557C67.5483 17.7769 67.4205 17.8981 67.25 17.9789C58.2159 24.4426 49.1819 26.2201 40.6592 23.1499C34.5228 21.0492 28.3864 20.5644 22.25 22.3419C21.7387 22.5035 21.2273 22.6651 20.5455 22.8267L20.2046 22.9883L19.6932 23.473C19.6932 23.5729 19.6281 23.6111 19.5381 23.6638L19.5381 23.6638C19.4825 23.6964 19.4174 23.7345 19.3523 23.7962C19.0114 24.281 18.6279 24.7254 18.2444 25.1698L18.2443 25.1698C17.8608 25.6142 17.4773 26.0585 17.1364 26.5433L13.8978 31.2295L19.1819 28.644C19.857 28.644 20.4252 28.4412 20.8864 28.2766L20.8865 28.2766C21.0074 28.2334 21.121 28.1928 21.2273 28.1592C22.0494 27.7696 22.9817 27.4843 23.8471 27.2195ZM28.2159 37.5316C23.4432 38.8244 19.0114 41.2483 15.091 45.1265C14.7415 45.3473 14.4716 45.6437 14.227 45.9123C14.1136 46.0368 14.0057 46.1553 13.8977 46.2576L11 49.1663L11.1705 45.1265C11.2587 44.6244 11.3013 44.079 11.3455 43.5127C11.3866 42.9854 11.4292 42.44 11.5114 41.8946V41.4098L11.8523 41.0867L12.7045 40.2787L16.2841 37.5316C19.6932 35.4309 23.1023 33.815 26.6818 32.8454C32.3068 31.3911 38.4432 31.7143 44.4091 33.815C57.0227 38.3396 68.1023 31.7143 75.2614 25.2506L75.9432 24.6042L77.1364 23.473L78.1591 24.7658C78.3517 25.0092 78.52 25.2526 78.6824 25.4873L78.6825 25.4874C78.9514 25.8761 79.2039 26.2411 79.5228 26.5433L80.2046 27.5129L79.3523 28.1593L77.1364 30.2599C71.3409 34.9461 58.0455 43.6721 42.7046 38.3396C37.7614 36.5621 32.8182 36.4005 28.2159 37.5316ZM31.625 48.0351C36.2273 46.904 41.1705 47.0656 46.1137 48.8431C51.5682 50.7822 65.5455 53.5293 81.2273 40.1171L83.7841 37.6932L83.9546 37.5316L84.6364 36.8852L84.2955 36.0773C84.125 35.4309 83.7841 34.623 83.4432 33.8151L83.4432 33.815L82.5909 31.5527L80.8864 33.1686C80.7763 33.3773 80.5952 33.5186 80.3888 33.6796C80.2756 33.7679 80.1549 33.8621 80.0341 33.9765C72.5341 41.2482 60.9432 48.6815 47.6478 44.1569C41.6818 42.0562 35.5455 41.733 29.9205 43.1873C24.466 44.6417 19.6932 47.3887 15.2614 51.267V51.1054L12.7046 53.6909C12.7046 53.7907 12.6395 53.8289 12.5495 53.8816C12.4939 53.9142 12.4288 53.9523 12.3637 54.0141L11.8523 54.4988L12.0228 55.1452C12.108 55.5492 12.2358 55.9531 12.3637 56.3571C12.4915 56.7611 12.6194 57.1651 12.7046 57.5691L13.7273 60.1546L15.4319 58.0539C15.5171 57.8923 15.6449 57.7711 15.7728 57.6499C15.9006 57.5287 16.0284 57.4075 16.1137 57.2459L16.4099 56.9916C19.9646 53.9394 24.8272 49.7641 31.625 48.0351ZM54.9773 65.4871C49.0114 63.3864 42.875 63.0632 37.25 64.5176C33.3296 65.4871 29.5796 67.4262 26.1705 69.8501L23.7841 71.7892L23.1023 72.4356L24.6364 73.7283C24.7417 73.7283 24.782 73.7901 24.8376 73.8754C24.8719 73.9281 24.9122 73.9898 24.9773 74.0515C25.2268 74.2881 25.4764 74.4381 25.7928 74.6283C25.9086 74.6979 26.0335 74.7729 26.1705 74.8595L27.1932 75.5059L28.2159 74.6979C28.3864 74.5363 28.7273 74.2131 29.0682 74.0515C32.1364 71.6276 35.5455 70.0117 39.125 69.2038C43.7273 68.0726 48.6705 68.2342 53.6136 70.0117C57.7045 71.466 66.0568 73.2436 76.1137 69.2038L76.4546 69.0421L76.9659 68.5574C76.9659 68.4575 77.031 68.4194 77.121 68.3666C77.1766 68.3341 77.2417 68.2959 77.3069 68.2342C78.1591 67.2646 79.0114 66.2951 79.6932 65.1639L83.1023 60.1546L77.6477 63.0632C69.6364 67.2646 62.3068 68.0726 54.9773 65.4871ZM59.9205 76.4754C59.6648 76.3947 59.4518 76.3139 59.2387 76.2331L59.2387 76.233C59.0256 76.1522 58.8126 76.0714 58.5569 75.9906C52.591 73.8899 46.4546 73.5668 40.8296 75.0211L40.8292 75.0212C39.6362 75.3444 38.4431 75.6675 37.2501 76.1522L33.1591 77.9298L32.1364 78.4145L35.5455 79.5457L38.6137 80.5153L39.125 80.6769L39.6364 80.5153C39.8069 80.4614 39.9774 80.3896 40.1478 80.3177C40.4887 80.1741 40.8296 80.0305 41.1705 80.0305C41.5114 80.0305 41.8523 79.8689 42.1932 79.7073C46.2841 78.7377 50.7159 78.7377 55.4887 80.1921C55.7443 80.2729 55.9574 80.3537 56.1705 80.4345L56.1705 80.4345C56.3836 80.5153 56.5967 80.5961 56.8523 80.6769L57.7046 81L58.216 80.8384C58.3975 80.7892 58.583 80.7401 58.7707 80.6903L58.7707 80.6903C59.8163 80.4131 60.9284 80.1183 61.7955 79.7073L66.5682 78.0914L61.625 76.9602C61.3694 76.8794 61.0711 76.7986 60.7728 76.7178C60.4745 76.637 60.1762 76.5562 59.9205 76.4754ZM83.4432 45.4497L86 43.0258L85.8296 46.7424C85.8296 47.2272 85.787 47.7524 85.7444 48.2775C85.7018 48.8027 85.6591 49.3279 85.6591 49.8127V50.2974L85.1478 50.7822C84.9773 50.9438 84.8069 51.065 84.6364 51.1862C84.466 51.3074 84.2955 51.4286 84.1251 51.5902C78.3296 56.2764 70.4887 60.4778 62.6478 61.2858C58.216 61.7705 53.7841 61.2857 49.5228 59.8314C44.5796 58.0539 39.6364 57.8923 35.0341 59.0234C29.9205 60.3162 25.4887 62.9016 21.3978 67.103L20.7159 67.7495L19.5227 69.2038L18.5001 67.7495C18.1592 67.1031 17.8182 66.6183 17.3069 65.9719L16.625 65.0024L17.3069 64.1944L19.5227 61.9321C23.7841 58.0539 28.5569 55.4684 33.841 54.0141C39.466 52.5598 45.6023 52.8829 51.5682 54.9836C64.1819 59.5082 75.4319 52.7213 82.4205 46.4192L83.4432 45.4497Z" fill="#FF847C"/>
<path d="M35.2046 17.1709L35.3552 16.6942L35.3537 16.6937L35.2046 17.1709ZM35.7159 17.3325L35.8872 16.8628L35.877 16.8591L35.8666 16.8558L35.7159 17.3325ZM35.2045 17.1709L35.0538 17.6477L35.0553 17.6481L35.2045 17.1709ZM33.841 17.0093L33.7077 17.4912L33.887 17.5408L34.0551 17.4611L33.841 17.0093ZM29.75 15.8782L29.5595 15.4159L28.2114 15.9716L29.6168 16.3601L29.75 15.8782ZM33.6705 14.2623L33.861 14.7246L33.873 14.7196L33.8846 14.7141L33.6705 14.2623ZM36.7386 13.1311L36.8893 13.6079L36.8893 13.6079L36.7386 13.1311ZM37.25 12.9695L37.4007 12.4928L37.25 12.4451L37.0994 12.4928L37.25 12.9695ZM37.7614 13.1311L37.6107 13.6079L37.6107 13.6079L37.7614 13.1311ZM39.2955 13.6159L39.1448 14.0927L39.1568 14.0965L39.169 14.0997L39.2955 13.6159ZM54.4659 12.808L54.3152 12.3312L54.3085 12.3333L54.3017 12.3357L54.4659 12.808ZM55.233 12.4848L55.4471 12.9366L55.4471 12.9366L55.233 12.4848ZM56 12.1616L55.8494 11.6848L55.8494 11.6848L56 12.1616ZM56.5114 12V11.5H56.4343L56.3608 11.5232L56.5114 12ZM57.0227 12L57.0898 11.5045L57.0564 11.5H57.0227V12ZM60.2614 12.808L60.1107 13.2847L60.1107 13.2847L60.2614 12.808ZM63.8409 13.9391L64.0494 14.3935L65.2278 13.853L63.9916 13.4623L63.8409 13.9391ZM58.5569 16.363L58.7341 16.8305L58.75 16.8245L58.7653 16.8174L58.5569 16.363ZM23.8471 27.2195L23.9451 27.7098L23.9663 27.7055L23.9871 27.6995L23.8471 27.2195ZM23.8471 27.2195L23.749 26.7292L23.7246 26.7341L23.7008 26.7414L23.8471 27.2195ZM23.8472 27.2194L23.9872 27.6995L23.9935 27.6976L23.8472 27.2194ZM24.466 27.0281L24.3466 26.5425L24.3308 26.5464L24.3153 26.5513L24.466 27.0281ZM38.9546 27.836L38.7854 28.3066L38.7897 28.3081L38.9546 27.836ZM69.9773 22.3419L70.2654 22.7506L70.2725 22.7456L70.2794 22.7403L69.9773 22.3419ZM72.5341 20.4028L72.232 20.0044L72.232 20.0044L72.5341 20.4028ZM73.3864 19.7564L73.6885 20.1548L74.2213 19.7508L73.6831 19.354L73.3864 19.7564ZM71.8523 18.6252L71.5083 18.9881L71.5307 19.0094L71.5556 19.0277L71.8523 18.6252ZM69.9773 17.3325L69.7102 17.7552L69.7358 17.7714L69.7631 17.7843L69.9773 17.3325ZM68.9546 16.6862L69.2217 16.2635L68.9286 16.0783L68.6524 16.2878L68.9546 16.6862ZM68.1023 17.3325L68.3165 17.7843L68.3632 17.7622L68.4044 17.7309L68.1023 17.3325ZM67.6762 17.6557L68.0201 18.0186L68.0201 18.0186L67.6762 17.6557ZM67.25 17.9789L67.0359 17.5271L66.9954 17.5462L66.9591 17.5723L67.25 17.9789ZM40.6592 23.1499L40.8286 22.6794L40.8211 22.6768L40.6592 23.1499ZM22.25 22.3419L22.1109 21.8615L22.0994 21.8651L22.25 22.3419ZM20.5455 22.8267L20.4302 22.3401L20.3789 22.3523L20.3313 22.3749L20.5455 22.8267ZM20.2046 22.9883L19.9904 22.5365L19.9184 22.5706L19.8606 22.6254L20.2046 22.9883ZM19.6932 23.473L19.3492 23.1101L19.1932 23.258V23.473H19.6932ZM19.5381 23.6638L19.2853 23.2324L19.2728 23.2397L19.2608 23.2478L19.5381 23.6638ZM19.5381 23.6638L19.7909 24.0952L19.8034 24.0878L19.8155 24.0798L19.5381 23.6638ZM19.3523 23.7962L19.0083 23.4334L18.9721 23.4677L18.9433 23.5086L19.3523 23.7962ZM18.2444 25.1698L18.6161 25.5043L18.6229 25.4965L18.2444 25.1698ZM18.2443 25.1698L17.8726 24.8352L17.8658 24.8431L18.2443 25.1698ZM17.1364 26.5433L16.7274 26.2557L16.7251 26.2591L17.1364 26.5433ZM13.8978 31.2295L13.4864 30.9452L12.3982 32.5199L14.1175 31.6786L13.8978 31.2295ZM19.1819 28.644V28.144H19.0661L18.9621 28.1949L19.1819 28.644ZM20.8864 28.2766L20.7283 27.8021L20.7183 27.8057L20.8864 28.2766ZM20.8865 28.2766L21.0446 28.751L21.0546 28.7475L20.8865 28.2766ZM21.2273 28.1592L21.3779 28.636L21.4106 28.6257L21.4415 28.6111L21.2273 28.1592ZM15.091 45.1265L15.3581 45.5491L15.404 45.5201L15.4426 45.4819L15.091 45.1265ZM28.2159 37.5316L28.0965 37.0459L28.0852 37.049L28.2159 37.5316ZM14.227 45.9123L13.8573 45.5756L13.8573 45.5757L14.227 45.9123ZM13.8977 46.2576L13.5538 45.8947L13.5486 45.8997L13.5435 45.9047L13.8977 46.2576ZM11 49.1663L10.5004 49.1452L10.4462 50.4306L11.3542 49.5192L11 49.1663ZM11.1705 45.1265L10.678 45.0399L10.6723 45.0724L10.6709 45.1054L11.1705 45.1265ZM11.3455 43.5127L10.847 43.4738L10.847 43.4738L11.3455 43.5127ZM11.5114 41.8946L12.0058 41.9691L12.0114 41.9321V41.8946H11.5114ZM11.5114 41.4098L11.1674 41.047L11.0114 41.1949V41.4098H11.5114ZM11.8523 41.0867L12.1963 41.4495L12.1963 41.4495L11.8523 41.0867ZM12.7045 40.2787L12.4001 39.882L12.3795 39.8979L12.3606 39.9158L12.7045 40.2787ZM16.2841 37.5316L16.0218 37.1059L16 37.1194L15.9797 37.135L16.2841 37.5316ZM26.6818 32.8454L26.5567 32.3613L26.5511 32.3628L26.6818 32.8454ZM44.4091 33.815L44.5779 33.3444L44.5752 33.3434L44.4091 33.815ZM75.2614 25.2506L75.5966 25.6218L75.6054 25.6134L75.2614 25.2506ZM75.9432 24.6042L75.5992 24.2413L75.5992 24.2413L75.9432 24.6042ZM77.1364 23.473L77.5285 23.1628L77.1893 22.734L76.7924 23.1102L77.1364 23.473ZM78.1591 24.7658L77.767 25.076L77.767 25.076L78.1591 24.7658ZM78.6824 25.4873L78.2712 25.7718L78.2778 25.7812L78.2847 25.7903L78.6824 25.4873ZM78.6825 25.4874L79.0937 25.2029L79.0872 25.1935L79.0802 25.1843L78.6825 25.4874ZM79.5228 26.5433L79.9317 26.2557L79.903 26.2149L79.8667 26.1805L79.5228 26.5433ZM80.2046 27.5129L80.5067 27.9112L80.891 27.6198L80.6136 27.2252L80.2046 27.5129ZM79.3523 28.1593L79.0501 27.7609L79.0282 27.7775L79.0083 27.7964L79.3523 28.1593ZM77.1364 30.2599L77.4508 30.6487L77.4661 30.6364L77.4804 30.6228L77.1364 30.2599ZM42.7046 38.3396L42.5354 38.8101L42.5404 38.8119L42.7046 38.3396ZM46.1137 48.8431L45.9445 49.3136L45.9462 49.3142L46.1137 48.8431ZM31.625 48.0351L31.5057 47.5496L31.5018 47.5505L31.625 48.0351ZM81.2273 40.1171L81.5523 40.4971L81.562 40.4888L81.5713 40.48L81.2273 40.1171ZM83.7841 37.6932L84.1281 38.0561L84.1281 38.0561L83.7841 37.6932ZM83.9546 37.5316L83.6106 37.1687L83.6106 37.1687L83.9546 37.5316ZM84.6364 36.8852L84.9804 37.2481L85.2317 37.0099L85.0971 36.6909L84.6364 36.8852ZM84.2955 36.0773L83.812 36.2048L83.821 36.239L83.8348 36.2717L84.2955 36.0773ZM83.4432 33.8151L83.9039 33.6207L83.9 33.6114L83.8957 33.6022L83.4432 33.8151ZM83.4432 33.815L82.9753 33.9913L82.9823 34.0099L82.9908 34.0279L83.4432 33.815ZM82.5909 31.5527L83.0588 31.3764L82.7934 30.6718L82.2469 31.1898L82.5909 31.5527ZM80.8864 33.1686L80.5424 32.8057L80.4826 32.8624L80.4441 32.9353L80.8864 33.1686ZM80.3888 33.6796L80.6964 34.0738L80.6964 34.0738L80.3888 33.6796ZM80.0341 33.9765L79.6901 33.6137L79.6861 33.6176L80.0341 33.9765ZM47.6478 44.1569L47.4817 44.6286L47.4867 44.6303L47.6478 44.1569ZM29.9205 43.1873L29.7953 42.7032L29.7917 42.7042L29.9205 43.1873ZM15.2614 51.267H14.7614V52.3689L15.5907 51.6432L15.2614 51.267ZM15.2614 51.1054H15.7614V49.8887L14.9059 50.7538L15.2614 51.1054ZM12.7046 53.6909L12.3491 53.3393L12.2046 53.4854V53.6909H12.7046ZM12.5495 53.8816L12.8023 54.313L12.8023 54.313L12.5495 53.8816ZM12.3637 54.0141L12.7077 54.3769L12.7077 54.3769L12.3637 54.0141ZM11.8523 54.4988L11.5083 54.1359L11.2933 54.3398L11.3688 54.6263L11.8523 54.4988ZM12.0228 55.1452L12.512 55.042L12.5094 55.0298L12.5062 55.0177L12.0228 55.1452ZM12.3637 56.3571L11.887 56.508L11.887 56.508L12.3637 56.3571ZM12.7046 57.5691L12.2153 57.6723L12.2241 57.7137L12.2396 57.753L12.7046 57.5691ZM13.7273 60.1546L13.2624 60.3385L13.5769 61.1335L14.1156 60.4696L13.7273 60.1546ZM15.4319 58.0539L15.8201 58.3689L15.8511 58.3307L15.8741 58.2871L15.4319 58.0539ZM15.7728 57.6499L15.4288 57.287L15.4288 57.287L15.7728 57.6499ZM16.1137 57.2459L15.788 56.8665L15.7158 56.9285L15.6714 57.0127L16.1137 57.2459ZM16.4099 56.9916L16.7356 57.371L16.7356 57.371L16.4099 56.9916ZM37.25 64.5176L37.3701 65.003L37.3752 65.0017L37.25 64.5176ZM54.9773 65.4871L55.1436 65.0156L55.1434 65.0155L54.9773 65.4871ZM26.1705 69.8501L25.8808 69.4426L25.8677 69.4519L25.8552 69.4621L26.1705 69.8501ZM23.7841 71.7892L23.4688 71.4012L23.454 71.4132L23.4401 71.4264L23.7841 71.7892ZM23.1023 72.4356L22.7583 72.0727L22.3524 72.4575L22.7801 72.818L23.1023 72.4356ZM24.6364 73.7283L24.3142 74.1107L24.4538 74.2283H24.6364V73.7283ZM24.8376 73.8754L24.4187 74.1484L24.4187 74.1484L24.8376 73.8754ZM24.9773 74.0515L24.6333 74.4144L24.6333 74.4144L24.9773 74.0515ZM25.7928 74.6283L26.0504 74.1997L26.0504 74.1997L25.7928 74.6283ZM26.1705 74.8595L26.4376 74.4368L26.4376 74.4368L26.1705 74.8595ZM27.1932 75.5059L26.9261 75.9285L27.2253 76.1177L27.5031 75.8982L27.1932 75.5059ZM28.2159 74.6979L28.5259 75.0902L28.5436 75.0763L28.5599 75.0607L28.2159 74.6979ZM29.0682 74.0515L29.2823 74.5033L29.3336 74.479L29.3781 74.4439L29.0682 74.0515ZM39.125 69.2038L39.2351 69.6916L39.2443 69.6893L39.125 69.2038ZM53.6136 70.0117L53.4444 70.4822L53.4461 70.4828L53.6136 70.0117ZM76.1137 69.2038L76.3 69.6677L76.3141 69.6621L76.3278 69.6556L76.1137 69.2038ZM76.4546 69.0421L76.6687 69.494L76.7407 69.4598L76.7986 69.405L76.4546 69.0421ZM76.9659 68.5574L77.3099 68.9203L77.4659 68.7724V68.5574H76.9659ZM77.121 68.3666L77.3738 68.798L77.3738 68.798L77.121 68.3666ZM77.3069 68.2342L77.6508 68.5971L77.6674 68.5814L77.6824 68.5643L77.3069 68.2342ZM79.6932 65.1639L79.2798 64.8826L79.2721 64.894L79.265 64.9058L79.6932 65.1639ZM83.1023 60.1546L83.5157 60.4359L82.867 59.7134L83.1023 60.1546ZM77.6477 63.0632L77.88 63.506L77.883 63.5044L77.6477 63.0632ZM59.2387 76.2331L59.053 76.6974L59.0614 76.7006L59.2387 76.2331ZM59.9205 76.4754L59.7698 76.9522L59.7698 76.9522L59.9205 76.4754ZM59.2387 76.233L59.4244 75.7687L59.416 75.7655L59.2387 76.233ZM58.5569 75.9906L58.3908 76.4623L58.3985 76.465L58.4062 76.4674L58.5569 75.9906ZM40.8296 75.0211L40.7044 74.537L40.6987 74.5386L40.8296 75.0211ZM40.8292 75.0212L40.96 75.5038L40.9601 75.5038L40.8292 75.0212ZM37.2501 76.1522L37.0618 75.6889L37.0508 75.6937L37.2501 76.1522ZM33.1591 77.9298L32.9599 77.4712L32.9524 77.4745L32.945 77.478L33.1591 77.9298ZM32.1364 78.4145L31.9223 77.9627L30.796 78.4966L31.979 78.8891L32.1364 78.4145ZM35.5455 79.5457L35.388 80.0203L35.3949 80.0225L35.5455 79.5457ZM38.6137 80.5153L38.7644 80.0385L38.7643 80.0385L38.6137 80.5153ZM39.125 80.6769L38.9744 81.1536L39.125 81.2012L39.2757 81.1536L39.125 80.6769ZM39.6364 80.5153L39.7871 80.992L39.7871 80.992L39.6364 80.5153ZM40.1478 80.3177L39.9537 79.857L39.9537 79.857L40.1478 80.3177ZM42.1932 79.7073L42.0779 79.2208L42.0267 79.2329L41.9791 79.2555L42.1932 79.7073ZM55.4887 80.1921L55.6393 79.7153L55.6344 79.7138L55.4887 80.1921ZM56.1705 80.4345L56.3562 79.9701L56.3478 79.9669L56.1705 80.4345ZM56.1705 80.4345L55.9848 80.8988L55.9933 80.902L56.1705 80.4345ZM56.8523 80.6769L57.0296 80.2093L57.0164 80.2043L57.003 80.2001L56.8523 80.6769ZM57.7046 81L57.5273 81.4675L57.6897 81.5291L57.8553 81.4768L57.7046 81ZM58.216 80.8384L58.0852 80.3558L58.0752 80.3585L58.0653 80.3617L58.216 80.8384ZM58.7707 80.6903L58.8988 81.1736L58.9282 81.1658L58.9564 81.1546L58.7707 80.6903ZM58.7707 80.6903L58.6426 80.207L58.6132 80.2148L58.585 80.2261L58.7707 80.6903ZM61.7955 79.7073L61.6352 79.2337L61.6076 79.243L61.5814 79.2555L61.7955 79.7073ZM66.5682 78.0914L66.7286 78.565L68.4025 77.9982L66.6798 77.604L66.5682 78.0914ZM61.625 76.9602L61.4744 77.437L61.4937 77.4431L61.5135 77.4476L61.625 76.9602ZM86 43.0258L86.4995 43.0487L86.5563 41.8094L85.656 42.6629L86 43.0258ZM83.4432 45.4497L83.0992 45.0868L83.0992 45.0868L83.4432 45.4497ZM85.8296 46.7424L85.3301 46.7195L85.3296 46.731V46.7424H85.8296ZM85.6591 50.2974L86.0031 50.6603L86.1591 50.5124V50.2974H85.6591ZM85.1478 50.7822L84.8038 50.4194L84.8038 50.4194L85.1478 50.7822ZM84.6364 51.1862L84.9262 51.5937L84.9262 51.5937L84.6364 51.1862ZM84.1251 51.5902L84.4394 51.979L84.4548 51.9666L84.4691 51.9531L84.1251 51.5902ZM62.6478 61.2858L62.5965 60.7884L62.5934 60.7887L62.6478 61.2858ZM49.5228 59.8314L49.3535 60.3019L49.3613 60.3046L49.5228 59.8314ZM35.0341 59.0234L34.9148 58.5379L34.9116 58.5387L35.0341 59.0234ZM21.3978 67.103L21.7418 67.4659L21.749 67.459L21.756 67.4519L21.3978 67.103ZM20.7159 67.7495L20.3719 67.3866L20.3492 67.4081L20.3294 67.4323L20.7159 67.7495ZM19.5227 69.2038L19.1137 69.4914L19.4921 70.0294L19.9093 69.5209L19.5227 69.2038ZM18.5001 67.7495L18.0578 67.9827L18.0727 68.0109L18.0911 68.0371L18.5001 67.7495ZM17.3069 65.9719L16.8979 66.2595L16.906 66.2711L16.9147 66.2822L17.3069 65.9719ZM16.625 65.0024L16.2429 64.6799L15.9943 64.9746L16.2161 65.29L16.625 65.0024ZM17.3069 64.1944L16.9497 63.8445L16.9367 63.8578L16.9247 63.8719L17.3069 64.1944ZM19.5227 61.9321L19.1862 61.5623L19.1756 61.572L19.1655 61.5822L19.5227 61.9321ZM33.841 54.0141L33.7158 53.5299L33.7083 53.532L33.841 54.0141ZM51.5682 54.9836L51.7371 54.513L51.7343 54.512L51.5682 54.9836ZM82.4205 46.4192L82.7555 46.7907L82.7645 46.7821L82.4205 46.4192ZM35.0539 17.6477L35.5652 17.8093L35.8666 16.8558L35.3552 16.6942L35.0539 17.6477ZM35.0553 17.6481L35.0554 17.6482L35.3537 16.6937L35.3536 16.6937L35.0553 17.6481ZM34.0551 17.4611C34.0849 17.447 34.1726 17.427 34.3739 17.4617C34.5683 17.4952 34.7898 17.5642 35.0538 17.6477L35.3551 16.6941C35.1078 16.616 34.818 16.5235 34.5437 16.4762C34.2763 16.4301 33.9379 16.4101 33.6268 16.5575L34.0551 17.4611ZM29.6168 16.3601L33.7077 17.4912L33.9742 16.5274L29.8832 15.3963L29.6168 16.3601ZM33.4799 13.8L29.5595 15.4159L29.9405 16.3405L33.861 14.7246L33.4799 13.8ZM36.588 12.6544C35.5694 12.9762 34.5147 13.3088 33.4563 13.8105L33.8846 14.7141C34.8718 14.2462 35.8624 13.9324 36.8893 13.6079L36.588 12.6544ZM37.0994 12.4928L36.588 12.6544L36.8893 13.6079L37.4007 13.4463L37.0994 12.4928ZM37.9121 12.6544L37.4007 12.4928L37.0994 13.4463L37.6107 13.6079L37.9121 12.6544ZM39.4461 13.1392L37.9121 12.6544L37.6107 13.6079L39.1448 14.0927L39.4461 13.1392ZM54.3017 12.3357C49.2707 14.0845 44.2585 14.3971 39.422 13.1322L39.169 14.0997C44.2187 15.4203 49.4339 15.0865 54.6301 13.2802L54.3017 12.3357ZM55.0188 12.033C54.7567 12.1572 54.5325 12.2626 54.3152 12.3312L54.6166 13.2847C54.9107 13.1918 55.1979 13.0547 55.4471 12.9366L55.0188 12.033ZM55.8494 11.6848C55.5552 11.7777 55.268 11.9148 55.0188 12.033L55.4471 12.9366C55.7093 12.8123 55.9335 12.707 56.1507 12.6383L55.8494 11.6848ZM56.3608 11.5232L55.8494 11.6848L56.1507 12.6383L56.662 12.4768L56.3608 11.5232ZM57.0227 11.5H56.5114V12.5H57.0227V11.5ZM60.4121 12.3312C59.3927 12.0091 58.3314 11.6727 57.0898 11.5045L56.9556 12.4955C58.1004 12.6505 59.0847 12.9605 60.1107 13.2847L60.4121 12.3312ZM63.9916 13.4623L60.4121 12.3312L60.1107 13.2847L63.6902 14.4158L63.9916 13.4623ZM58.7653 16.8174L64.0494 14.3935L63.6324 13.4846L58.3484 15.9085L58.7653 16.8174ZM45.6023 19.4485C50.109 19.4485 54.4312 18.4622 58.7341 16.8305L58.3796 15.8955C54.1598 17.4956 49.9593 18.4485 45.6023 18.4485V19.4485ZM35.5446 17.8023C37.8119 18.629 41.2788 19.4485 45.6023 19.4485V18.4485C41.403 18.4485 38.0518 17.652 35.8872 16.8628L35.5446 17.8023ZM23.749 26.7292L23.749 26.7292L23.9451 27.7098L23.9451 27.7098L23.749 26.7292ZM23.7072 26.7394L23.7071 26.7395L23.9871 27.6995L23.9872 27.6994L23.7072 26.7394ZM24.3153 26.5513C24.1173 26.6139 23.9124 26.6766 23.7008 26.7413L23.9935 27.6976C24.2041 27.6331 24.4135 27.569 24.6166 27.5048L24.3153 26.5513ZM39.1238 27.3655C34.0865 25.5542 29.0429 25.3883 24.3466 26.5425L24.5853 27.5136C29.0935 26.4056 33.9363 26.5629 38.7854 28.3065L39.1238 27.3655ZM49.0114 28.952C45.4801 28.952 42.2981 28.4742 39.1195 27.364L38.7897 28.3081C42.0883 29.4602 45.3836 29.952 49.0114 29.952V28.952ZM69.6892 21.9332C63.1141 26.5682 56.0539 28.952 49.0114 28.952V29.952C56.2871 29.952 63.545 27.488 70.2654 22.7506L69.6892 21.9332ZM72.232 20.0044L69.6752 21.9435L70.2794 22.7403L72.8363 20.8012L72.232 20.0044ZM73.0843 19.358L72.232 20.0044L72.8363 20.8012L73.6885 20.1548L73.0843 19.358ZM71.5556 19.0277L73.0897 20.1588L73.6831 19.354L72.149 18.2228L71.5556 19.0277ZM69.7631 17.7843C70.3932 18.083 71.0319 18.5364 71.5083 18.9881L72.1963 18.2624C71.65 17.7445 70.925 17.2284 70.1915 16.8807L69.7631 17.7843ZM68.6874 17.1088L69.7102 17.7552L70.2444 16.9099L69.2217 16.2635L68.6874 17.1088ZM68.4044 17.7309L69.2567 17.0846L68.6524 16.2878L67.8002 16.9341L68.4044 17.7309ZM68.0201 18.0186C68.1553 17.8904 68.2288 17.8259 68.3165 17.7843L67.8881 16.8807C67.6349 17.0007 67.4527 17.1786 67.3322 17.2928L68.0201 18.0186ZM67.4642 18.4307C67.7174 18.3107 67.8996 18.1328 68.0201 18.0186L67.3322 17.2928C67.197 17.421 67.1235 17.4855 67.0359 17.5271L67.4642 18.4307ZM40.4897 23.6203C49.2039 26.7595 58.4086 24.9195 67.541 18.3855L66.9591 17.5723C58.0232 23.9657 49.1598 25.6807 40.8286 22.6795L40.4897 23.6203ZM22.3891 22.8222C28.4084 21.0786 34.4382 21.5487 40.4972 23.6229L40.8211 22.6768C34.6073 20.5496 28.3644 20.0502 22.1109 21.8616L22.3891 22.8222ZM20.6608 23.3132C21.362 23.147 21.8886 22.9805 22.4007 22.8187L22.0994 21.8651C21.5887 22.0265 21.0926 22.1832 20.4302 22.3401L20.6608 23.3132ZM20.4188 23.4401L20.7597 23.2785L20.3313 22.3749L19.9904 22.5365L20.4188 23.4401ZM20.0372 23.8359L20.5486 23.3511L19.8606 22.6254L19.3492 23.1101L20.0372 23.8359ZM19.7909 24.0952C19.8178 24.0794 19.9244 24.0214 20.0098 23.9327C20.1251 23.8128 20.1932 23.6548 20.1932 23.473H19.1932C19.1932 23.4422 19.1986 23.3981 19.2185 23.349C19.2386 23.2997 19.2661 23.2633 19.2891 23.2395C19.3096 23.2181 19.3251 23.2083 19.3222 23.2102C19.3182 23.2129 19.3109 23.2174 19.2853 23.2324L19.7909 24.0952ZM19.8155 24.0798L19.8155 24.0798L19.2608 23.2478L19.2608 23.2478L19.8155 24.0798ZM19.6963 24.1591C19.7155 24.1409 19.7353 24.1278 19.7909 24.0952L19.2853 23.2324C19.2298 23.265 19.1194 23.3281 19.0083 23.4334L19.6963 24.1591ZM18.6229 25.4965C19.0038 25.0551 19.4038 24.5922 19.7613 24.0838L18.9433 23.5086C18.619 23.9698 18.252 24.3957 17.8658 24.8431L18.6229 25.4965ZM18.616 25.5043L18.616 25.5043L17.8727 24.8353L17.8727 24.8353L18.616 25.5043ZM17.5454 26.8309C17.8697 26.3698 18.2367 25.9439 18.6229 25.4965L17.8658 24.8431C17.4849 25.2845 17.0849 25.7473 16.7274 26.2557L17.5454 26.8309ZM14.3091 31.5138L17.5477 26.8276L16.7251 26.2591L13.4864 30.9452L14.3091 31.5138ZM18.9621 28.1949L13.678 30.7804L14.1175 31.6786L19.4016 29.0931L18.9621 28.1949ZM20.7183 27.8057C20.2535 27.9716 19.7603 28.144 19.1819 28.144V29.144C19.9538 29.144 20.5969 28.9108 21.0545 28.7475L20.7183 27.8057ZM20.7284 27.8022L20.7283 27.8022L21.0445 28.7509L21.0446 28.7509L20.7284 27.8022ZM21.0766 27.6825C20.9599 27.7194 20.8373 27.7632 20.7184 27.8057L21.0546 28.7475C21.1776 28.7035 21.2821 28.6663 21.3779 28.636L21.0766 27.6825ZM23.7008 26.7414C22.8425 27.004 21.8741 27.2993 21.0131 27.7074L21.4415 28.6111C22.2248 28.2398 23.121 27.9645 23.9934 27.6976L23.7008 26.7414ZM15.4426 45.4819C19.2998 41.6663 23.6548 39.285 28.3466 38.0142L28.0852 37.049C23.2316 38.3637 18.723 40.8303 14.7393 44.771L15.4426 45.4819ZM14.5966 46.249C14.8471 45.974 15.0743 45.7285 15.3581 45.5491L14.8238 44.7038C14.4087 44.9662 14.0961 45.3134 13.8573 45.5756L14.5966 46.249ZM14.2417 46.6205C14.3655 46.5031 14.4862 46.3702 14.5966 46.249L13.8573 45.5757C13.741 45.7033 13.6459 45.8074 13.5538 45.8947L14.2417 46.6205ZM11.3542 49.5192L14.252 46.6105L13.5435 45.9047L10.6458 48.8134L11.3542 49.5192ZM10.6709 45.1054L10.5004 49.1452L11.4996 49.1874L11.67 45.1476L10.6709 45.1054ZM10.847 43.4738C10.8024 44.0456 10.7613 44.5659 10.678 45.0399L11.6629 45.2131C11.7561 44.6829 11.8002 44.1124 11.844 43.5516L10.847 43.4738ZM11.017 41.8201C10.9317 42.3861 10.8879 42.9492 10.847 43.4738L11.844 43.5516C11.8853 43.0216 11.9267 42.4939 12.0058 41.9691L11.017 41.8201ZM11.0114 41.4098V41.8946H12.0114V41.4098H11.0114ZM11.5083 40.7238L11.1674 41.047L11.8554 41.7727L12.1963 41.4495L11.5083 40.7238ZM12.3606 39.9158L11.5083 40.7238L12.1963 41.4495L13.0485 40.6416L12.3606 39.9158ZM15.9797 37.135L12.4001 39.882L13.009 40.6754L16.5885 37.9283L15.9797 37.135ZM26.5511 32.3628C22.9132 33.3482 19.4596 34.9875 16.0218 37.1059L16.5464 37.9573C19.9267 35.8743 23.2914 34.2818 26.8126 33.328L26.5511 32.3628ZM44.5752 33.3434C38.5232 31.2124 32.2853 30.8802 26.5567 32.3614L26.807 33.3295C32.3283 31.902 38.3632 32.2162 44.243 34.2866L44.5752 33.3434ZM74.9263 24.8795C67.8052 31.3089 56.9211 37.772 44.5779 33.3444L44.2403 34.2856C57.1243 38.9072 68.3994 32.1197 75.5965 25.6217L74.9263 24.8795ZM75.5992 24.2413L74.9174 24.8877L75.6054 25.6134L76.2872 24.9671L75.5992 24.2413ZM76.7924 23.1102L75.5992 24.2413L76.2872 24.9671L77.4804 23.8359L76.7924 23.1102ZM78.5513 24.4556L77.5285 23.1628L76.7443 23.7833L77.767 25.076L78.5513 24.4556ZM79.0936 25.2028C78.9324 24.9697 78.7553 24.7134 78.5513 24.4556L77.767 25.076C77.9481 25.3049 78.1077 25.5354 78.2712 25.7718L79.0936 25.2028ZM79.0802 25.1843L79.0802 25.1843L78.2847 25.7903L78.2848 25.7904L79.0802 25.1843ZM79.8667 26.1805C79.5922 25.9202 79.3684 25.5999 79.0937 25.2029L78.2713 25.7718C78.5344 26.1522 78.8157 26.562 79.1788 26.9062L79.8667 26.1805ZM80.6136 27.2252L79.9317 26.2557L79.1138 26.831L79.7956 27.8005L80.6136 27.2252ZM79.6544 28.5576L80.5067 27.9112L79.9024 27.1145L79.0501 27.7609L79.6544 28.5576ZM77.4804 30.6228L79.6963 28.5221L79.0083 27.7964L76.7924 29.8971L77.4804 30.6228ZM42.5404 38.8119C58.1457 44.2363 71.6335 35.3526 77.4508 30.6487L76.822 29.8711C71.0484 34.5397 57.9453 43.108 42.8687 37.8673L42.5404 38.8119ZM28.3353 38.0172C32.8435 36.9091 37.6862 37.0664 42.5354 38.8101L42.8737 37.8691C37.8365 36.0577 32.7929 35.8918 28.0966 37.0461L28.3353 38.0172ZM46.2829 48.3726C41.2456 46.5612 36.202 46.3953 31.5057 47.5496L31.7444 48.5207C36.2526 47.4126 41.0954 47.5699 45.9445 49.3136L46.2829 48.3726ZM80.9023 39.7371C65.3907 53.0037 51.6143 50.2679 46.2812 48.372L45.9462 49.3142C51.5222 51.2965 65.7003 54.0549 81.5523 40.4971L80.9023 39.7371ZM83.4401 37.3303L80.8833 39.7542L81.5713 40.48L84.1281 38.0561L83.4401 37.3303ZM83.6106 37.1687L83.4401 37.3303L84.1281 38.0561L84.2986 37.8945L83.6106 37.1687ZM84.2924 36.5224L83.6106 37.1687L84.2986 37.8945L84.9804 37.2481L84.2924 36.5224ZM83.8348 36.2717L84.1757 37.0796L85.0971 36.6909L84.7561 35.8829L83.8348 36.2717ZM82.9826 34.0095C83.3285 34.8293 83.6526 35.6003 83.812 36.2048L84.7789 35.9498C84.5974 35.2615 84.2398 34.4167 83.9039 33.6207L82.9826 34.0095ZM82.9908 34.0279L82.9908 34.028L83.8957 33.6022L83.8956 33.6021L82.9908 34.0279ZM82.123 31.7289L82.9753 33.9913L83.9111 33.6387L83.0588 31.3764L82.123 31.7289ZM81.2304 33.5314L82.9349 31.9155L82.2469 31.1898L80.5424 32.8057L81.2304 33.5314ZM80.6964 34.0738C80.8856 33.9262 81.1598 33.7219 81.3286 33.4018L80.4441 32.9353C80.3928 33.0327 80.3047 33.111 80.0813 33.2853L80.6964 34.0738ZM80.3781 34.3394C80.479 34.2438 80.5815 34.1634 80.6964 34.0738L80.0813 33.2853C79.9698 33.3723 79.8308 33.4803 79.6901 33.6137L80.3781 34.3394ZM47.4867 44.6303C61.0623 49.2502 72.8485 41.6398 80.3822 34.3355L79.6861 33.6176C72.2198 40.8566 60.8242 48.1128 47.8088 43.6836L47.4867 44.6303ZM30.0457 43.6714C35.567 42.2439 41.6019 42.5581 47.4817 44.6285L47.8138 43.6853C41.7618 41.5543 35.524 41.2221 29.7953 42.7033L30.0457 43.6714ZM15.5907 51.6432C19.9747 47.8068 24.6807 45.1019 30.0493 43.6705L29.7917 42.7042C24.2512 44.1815 19.4117 46.9707 14.9321 50.8907L15.5907 51.6432ZM14.7614 51.1054V51.267H15.7614V51.1054H14.7614ZM13.0601 54.0424L15.6169 51.4569L14.9059 50.7538L12.3491 53.3393L13.0601 54.0424ZM12.8023 54.313C12.8291 54.2973 12.9358 54.2393 13.0211 54.1505C13.1364 54.0307 13.2046 53.8726 13.2046 53.6909H12.2046C12.2046 53.66 12.2099 53.6159 12.2299 53.5669C12.25 53.5176 12.2775 53.4811 12.3004 53.4573C12.3209 53.436 12.3365 53.4262 12.3336 53.4281C12.3296 53.4308 12.3223 53.4353 12.2967 53.4502L12.8023 54.313ZM12.7077 54.3769C12.7268 54.3588 12.7466 54.3456 12.8023 54.313L12.2967 53.4502C12.2412 53.4828 12.1308 53.5459 12.0197 53.6512L12.7077 54.3769ZM12.1963 54.8617L12.7077 54.3769L12.0197 53.6512L11.5083 54.1359L12.1963 54.8617ZM12.5062 55.0177L12.3358 54.3713L11.3688 54.6263L11.5393 55.2727L12.5062 55.0177ZM12.8404 56.2063C12.7111 55.7979 12.5913 55.4176 12.512 55.042L11.5335 55.2484C11.6247 55.6807 11.7605 56.1084 11.887 56.508L12.8404 56.2063ZM13.1938 57.4659C13.1026 57.0336 12.9668 56.6059 12.8404 56.2063L11.887 56.508C12.0162 56.9164 12.1361 57.2966 12.2153 57.6723L13.1938 57.4659ZM14.1923 59.9706L13.1695 57.3852L12.2396 57.753L13.2624 60.3385L14.1923 59.9706ZM15.0436 57.7388L13.3391 59.8395L14.1156 60.4696L15.8201 58.3689L15.0436 57.7388ZM15.4288 57.287C15.31 57.3996 15.1194 57.5746 14.9896 57.8206L15.8741 58.2871C15.9148 58.21 15.9799 58.1425 16.1168 58.0127L15.4288 57.287ZM15.6714 57.0127C15.6307 57.0898 15.5657 57.1572 15.4288 57.287L16.1168 58.0128C16.2355 57.9002 16.4262 57.7252 16.5559 57.4792L15.6714 57.0127ZM16.0842 56.6122L15.788 56.8665L16.4393 57.6253L16.7356 57.371L16.0842 56.6122ZM31.5018 47.5505C24.5772 49.3118 19.6345 53.5638 16.0842 56.6123L16.7356 57.371C20.2948 54.3149 25.0772 50.2164 31.7483 48.5197L31.5018 47.5505ZM37.3752 65.0017C42.8965 63.5741 48.9314 63.8883 54.8112 65.9587L55.1434 65.0155C49.0914 62.8845 42.8535 62.5524 37.1249 64.0335L37.3752 65.0017ZM26.4602 70.2576C29.8333 67.8593 33.5263 65.9535 37.3701 65.003L37.13 64.0322C33.1328 65.0207 29.3259 66.9931 25.8808 69.4426L26.4602 70.2576ZM24.0994 72.1773L26.4858 70.2382L25.8552 69.4621L23.4688 71.4012L24.0994 72.1773ZM23.4463 72.7985L24.1281 72.1521L23.4401 71.4264L22.7583 72.0727L23.4463 72.7985ZM24.9586 73.346L23.4245 72.0533L22.7801 72.818L24.3142 74.1107L24.9586 73.346ZM25.2564 73.6023C25.2396 73.5764 25.1769 73.4731 25.0826 73.3916C24.9586 73.2844 24.8051 73.2283 24.6364 73.2283V74.2283C24.6129 74.2283 24.5759 74.2247 24.5326 74.2089C24.4884 74.1927 24.4535 74.1696 24.4286 74.1481C24.4063 74.1288 24.3953 74.1135 24.3964 74.115C24.3986 74.1179 24.4028 74.124 24.4187 74.1484L25.2564 73.6023ZM25.3213 73.6887C25.303 73.6713 25.2902 73.6542 25.2564 73.6023L24.4187 74.1484C24.4536 74.202 24.5214 74.3083 24.6333 74.4144L25.3213 73.6887ZM26.0504 74.1997C25.7288 74.0064 25.5254 73.8822 25.3213 73.6887L24.6333 74.4144C24.9282 74.694 25.224 74.8698 25.5352 75.0568L26.0504 74.1997ZM26.4376 74.4368C26.2952 74.3468 26.1659 74.2691 26.0504 74.1997L25.5352 75.0568C25.6514 75.1266 25.7717 75.1989 25.9034 75.2822L26.4376 74.4368ZM27.4603 75.0832L26.4376 74.4368L25.9034 75.2822L26.9261 75.9285L27.4603 75.0832ZM27.906 74.3055L26.8832 75.1135L27.5031 75.8982L28.5259 75.0902L27.906 74.3055ZM28.854 73.5997C28.4284 73.8015 28.0305 74.1847 27.8719 74.335L28.5599 75.0607C28.7423 74.8879 29.0262 74.6248 29.2823 74.5033L28.854 73.5997ZM39.0149 68.716C35.361 69.5408 31.8839 71.1899 28.7582 73.6592L29.3781 74.4439C32.3889 72.0654 35.7299 70.4827 39.2351 69.6915L39.0149 68.716ZM53.7828 69.5412C48.7456 67.7299 43.702 67.5639 39.0057 68.7182L39.2443 69.6893C43.7526 68.5813 48.5953 68.7385 53.4444 70.4822L53.7828 69.5412ZM75.9273 68.7398C66.0154 72.7214 57.7942 70.9673 53.7811 69.5406L53.4461 70.4828C57.6149 71.9648 66.0983 73.7658 76.3 69.6677L75.9273 68.7398ZM76.2404 68.5903L75.8995 68.7519L76.3278 69.6556L76.6687 69.494L76.2404 68.5903ZM76.6219 68.1945L76.1106 68.6793L76.7986 69.405L77.3099 68.9203L76.6219 68.1945ZM76.8683 67.9352C76.8414 67.951 76.7348 68.009 76.6494 68.0977C76.5341 68.2175 76.4659 68.3756 76.4659 68.5574H77.4659C77.4659 68.5883 77.4606 68.6323 77.4406 68.6814C77.4205 68.7307 77.393 68.7672 77.3701 68.791C77.3495 68.8123 77.334 68.8221 77.3369 68.8202C77.3409 68.8175 77.3482 68.813 77.3738 68.798L76.8683 67.9352ZM76.9629 67.8713C76.9437 67.8895 76.9239 67.9026 76.8682 67.9352L77.3738 68.798C77.4293 68.7655 77.5398 68.7023 77.6508 68.5971L76.9629 67.8713ZM79.265 64.9058C78.61 65.9924 77.7881 66.9294 76.9313 67.9041L77.6824 68.5643C78.5301 67.5999 79.4128 66.5977 80.1214 65.4221L79.265 64.9058ZM82.6889 59.8733L79.2798 64.8826L80.1066 65.4452L83.5157 60.4359L82.6889 59.8733ZM77.883 63.5044L83.3376 60.5958L82.867 59.7134L77.4125 62.622L77.883 63.5044ZM54.811 65.9586C62.2949 68.5985 69.7692 67.7595 77.88 63.506L77.4155 62.6204C69.5035 66.7697 62.3188 67.5466 55.1436 65.0156L54.811 65.9586ZM59.0614 76.7006C59.2739 76.7812 59.4991 76.8666 59.7698 76.9522L60.0712 75.9987C59.8306 75.9227 59.6296 75.8466 59.416 75.7656L59.0614 76.7006ZM59.053 76.6973L59.053 76.6973L59.4244 75.7688L59.4244 75.7688L59.053 76.6973ZM58.4062 76.4674C58.6468 76.5434 58.8477 76.6195 59.0614 76.7005L59.416 75.7655C59.2035 75.6849 58.9783 75.5994 58.7075 75.5139L58.4062 76.4674ZM40.9547 75.5052C46.4761 74.0777 52.511 74.3919 58.3908 76.4623L58.7229 75.519C52.671 73.388 46.4331 73.0559 40.7044 74.537L40.9547 75.5052ZM40.9601 75.5038L40.9604 75.5037L40.6987 74.5386L40.6984 74.5386L40.9601 75.5038ZM37.4383 76.6155C38.5988 76.144 39.7629 75.8281 40.96 75.5038L40.6985 74.5386C39.5095 74.8607 38.2875 75.1911 37.0619 75.689L37.4383 76.6155ZM33.3584 78.3884L37.4493 76.6108L37.0508 75.6937L32.9599 77.4712L33.3584 78.3884ZM32.3506 78.8663L33.3733 78.3816L32.945 77.478L31.9223 77.9627L32.3506 78.8663ZM35.703 79.0711L32.2939 77.94L31.979 78.8891L35.3881 80.0203L35.703 79.0711ZM38.7643 80.0385L35.6962 79.0689L35.3949 80.0225L38.463 80.992L38.7643 80.0385ZM39.2757 80.2001L38.7644 80.0385L38.463 80.992L38.9744 81.1536L39.2757 80.2001ZM39.4858 80.0385L38.9744 80.2001L39.2757 81.1536L39.7871 80.992L39.4858 80.0385ZM39.9537 79.857C39.7791 79.9305 39.6302 79.9928 39.4858 80.0385L39.7871 80.992C39.9835 80.9299 40.1756 80.8486 40.342 80.7785L39.9537 79.857ZM41.1705 79.5305C40.7096 79.5305 40.2716 79.723 39.9537 79.857L40.342 80.7785C40.7058 80.6252 40.9496 80.5305 41.1705 80.5305V79.5305ZM41.9791 79.2555C41.6112 79.4298 41.3773 79.5305 41.1705 79.5305V80.5305C41.6455 80.5305 42.0934 80.3079 42.4074 80.1591L41.9791 79.2555ZM55.6344 79.7138C50.7742 78.2328 46.2522 78.2315 42.0779 79.2208L42.3085 80.1938C46.3161 79.244 50.6577 79.2427 55.3429 80.6703L55.6344 79.7138ZM56.3478 79.9669C56.1353 79.8864 55.9101 79.8009 55.6393 79.7153L55.338 80.6688C55.5786 80.7448 55.7796 80.8209 55.9932 80.902L56.3478 79.9669ZM56.3562 79.9702L56.3562 79.9702L55.9848 80.8987L55.9848 80.8987L56.3562 79.9702ZM57.003 80.2001C56.7624 80.1241 56.5615 80.048 56.3478 79.967L55.9933 80.902C56.2058 80.9826 56.4309 81.0681 56.7017 81.1536L57.003 80.2001ZM57.8819 80.5325L57.0296 80.2093L56.6751 81.1444L57.5273 81.4675L57.8819 80.5325ZM58.0653 80.3617L57.5539 80.5233L57.8553 81.4768L58.3666 81.3152L58.0653 80.3617ZM58.6426 80.207C58.4551 80.2567 58.2683 80.3062 58.0852 80.3558L58.3467 81.321C58.5267 81.2723 58.7109 81.2234 58.8988 81.1736L58.6426 80.207ZM58.585 80.2261L58.585 80.2261L58.9564 81.1546L58.9564 81.1545L58.585 80.2261ZM61.5814 79.2555C60.7643 79.6428 59.701 79.9264 58.6426 80.207L58.8989 81.1736C59.9315 80.8998 61.0926 80.5938 62.0097 80.1591L61.5814 79.2555ZM66.4079 77.6178L61.6352 79.2337L61.9559 80.1809L66.7286 78.565L66.4079 77.6178ZM61.5135 77.4476L66.4567 78.5788L66.6798 77.604L61.7366 76.4728L61.5135 77.4476ZM60.6421 77.2004C60.9431 77.282 61.2306 77.3599 61.4744 77.437L61.7757 76.4834C61.5081 76.3989 61.1991 76.3153 60.9035 76.2352L60.6421 77.2004ZM59.7698 76.9522C60.0374 77.0368 60.3465 77.1204 60.6421 77.2004L60.9035 76.2352C60.6025 76.1537 60.315 76.0757 60.0712 75.9987L59.7698 76.9522ZM85.656 42.6629L83.0992 45.0868L83.7872 45.8125L86.344 43.3886L85.656 42.6629ZM86.3291 46.7653L86.4995 43.0487L85.5005 43.0029L85.3301 46.7195L86.3291 46.7653ZM86.2427 48.318C86.285 47.7974 86.3296 47.2512 86.3296 46.7424H85.3296C85.3296 47.2032 85.289 47.7073 85.246 48.2371L86.2427 48.318ZM86.1591 49.8127C86.1591 49.3519 86.1998 48.8478 86.2427 48.318L85.246 48.2371C85.2038 48.7577 85.1591 49.3039 85.1591 49.8127H86.1591ZM86.1591 50.2974V49.8127H85.1591V50.2974H86.1591ZM85.4917 51.1451L86.0031 50.6603L85.3152 49.9346L84.8038 50.4194L85.4917 51.1451ZM84.9262 51.5937C85.0943 51.4742 85.2923 51.3342 85.4917 51.1451L84.8038 50.4194C84.6623 50.5535 84.5194 50.6559 84.3467 50.7787L84.9262 51.5937ZM84.4691 51.9531C84.6105 51.819 84.7534 51.7166 84.9262 51.5937L84.3467 50.7787C84.1785 50.8983 83.9805 51.0382 83.7811 51.2273L84.4691 51.9531ZM62.699 61.7831C70.6687 60.9619 78.5988 56.7017 84.4394 51.979L83.8107 51.2014C78.0604 55.851 70.3086 59.9937 62.5965 60.7884L62.699 61.7831ZM49.3613 60.3046C53.6919 61.7826 58.1975 62.2755 62.7022 61.7828L62.5934 60.7887C58.2345 61.2655 53.8763 60.7889 49.6843 59.3582L49.3613 60.3046ZM35.1535 59.509C39.6617 58.4009 44.5045 58.5582 49.3536 60.3019L49.6919 59.3609C44.6547 57.5495 39.6111 57.3836 34.9148 58.5379L35.1535 59.509ZM21.756 67.4519C25.7874 63.3116 30.1393 60.7766 35.1567 59.5082L34.9116 58.5387C29.7017 59.8557 25.19 62.4917 21.0395 66.7542L21.756 67.4519ZM21.06 68.1123L21.7418 67.4659L21.0537 66.7402L20.3719 67.3866L21.06 68.1123ZM19.9093 69.5209L21.1025 68.0666L20.3294 67.4323L19.1362 68.8866L19.9093 69.5209ZM18.0911 68.0371L19.1137 69.4914L19.9317 68.9162L18.9091 67.4618L18.0911 68.0371ZM16.9147 66.2822C17.4155 66.9152 17.7364 67.3734 18.0578 67.9827L18.9423 67.5162C18.5819 66.8328 18.2209 66.3214 17.699 65.6617L16.9147 66.2822ZM16.2161 65.29L16.8979 66.2595L17.7159 65.6843L17.034 64.7147L16.2161 65.29ZM16.9247 63.8719L16.2429 64.6799L17.0072 65.3248L17.689 64.5169L16.9247 63.8719ZM19.1655 61.5822L16.9497 63.8445L17.6641 64.5443L19.8799 62.282L19.1655 61.5822ZM33.7083 53.532C28.3487 55.0071 23.506 57.6309 19.1862 61.5623L19.8593 62.3019C24.0622 58.4768 28.7651 55.9297 33.9737 54.4962L33.7083 53.532ZM51.7343 54.512C45.6823 52.381 39.4445 52.0489 33.7158 53.53L33.9661 54.4982C39.4875 53.0706 45.5223 53.3848 51.4022 55.4552L51.7343 54.512ZM82.0857 46.0479C75.1332 52.3174 64.0791 58.9401 51.7371 54.513L51.3994 55.4542C64.2846 60.0762 75.7305 53.1253 82.7554 46.7905L82.0857 46.0479ZM83.0992 45.0868L82.0765 46.0564L82.7645 46.7821L83.7872 45.8125L83.0992 45.0868Z" fill="#FF847C"/>
</g>
<mask id="path-4-outside-1_29_205" maskUnits="userSpaceOnUse" x="33" y="18" width="34" height="56" fill="black">
<rect fill="white" x="33" y="18" width="34" height="56"/>
<path d="M34 72.0741V19H41.9749C45.5269 19 48.3571 19.275 50.4654 19.825C52.5966 20.375 54.3955 21.3031 55.8621 22.6093C57.3517 23.9614 58.5319 25.6457 59.4027 27.6624C60.2965 29.7019 60.7433 31.7644 60.7433 33.8498C60.7433 37.6539 59.2881 40.8736 56.3778 43.509C59.1965 44.4715 61.4193 46.1558 63.0464 48.562C64.6964 50.9453 65.5214 53.7182 65.5214 56.8806C65.5214 61.0285 64.0547 64.5347 61.1214 67.3992C59.3569 69.1638 57.3746 70.3898 55.1747 71.0773C52.7684 71.7419 49.755 72.0741 46.1342 72.0741H34ZM42.0092 41.7903H44.5186C47.4977 41.7903 49.6747 41.1371 51.0497 39.8309C52.4476 38.5018 53.1466 36.5539 53.1466 33.9873C53.1466 31.4894 52.4362 29.5988 51.0154 28.3155C49.5945 27.0092 47.5321 26.3561 44.828 26.3561H42.0092V41.7903ZM42.0092 64.5461H46.9592C50.5799 64.5461 53.2382 63.8357 54.934 62.4149C56.7215 60.8795 57.6152 58.9316 57.6152 56.5713C57.6152 54.2796 56.7559 52.3547 55.0372 50.7964C53.3643 49.261 50.3737 48.4933 46.0654 48.4933H42.0092V64.5461Z"/>
</mask>
<path d="M34 72.0741V19H41.9749C45.5269 19 48.3571 19.275 50.4654 19.825C52.5966 20.375 54.3955 21.3031 55.8621 22.6093C57.3517 23.9614 58.5319 25.6457 59.4027 27.6624C60.2965 29.7019 60.7433 31.7644 60.7433 33.8498C60.7433 37.6539 59.2881 40.8736 56.3778 43.509C59.1965 44.4715 61.4193 46.1558 63.0464 48.562C64.6964 50.9453 65.5214 53.7182 65.5214 56.8806C65.5214 61.0285 64.0547 64.5347 61.1214 67.3992C59.3569 69.1638 57.3746 70.3898 55.1747 71.0773C52.7684 71.7419 49.755 72.0741 46.1342 72.0741H34ZM42.0092 41.7903H44.5186C47.4977 41.7903 49.6747 41.1371 51.0497 39.8309C52.4476 38.5018 53.1466 36.5539 53.1466 33.9873C53.1466 31.4894 52.4362 29.5988 51.0154 28.3155C49.5945 27.0092 47.5321 26.3561 44.828 26.3561H42.0092V41.7903ZM42.0092 64.5461H46.9592C50.5799 64.5461 53.2382 63.8357 54.934 62.4149C56.7215 60.8795 57.6152 58.9316 57.6152 56.5713C57.6152 54.2796 56.7559 52.3547 55.0372 50.7964C53.3643 49.261 50.3737 48.4933 46.0654 48.4933H42.0092V64.5461Z" fill="#FBE5E3"/>
<path d="M34 72.0741H33V73.0741H34V72.0741ZM34 19V18H33V19H34ZM50.4654 19.825L50.2129 20.7926L50.2155 20.7933L50.4654 19.825ZM55.8621 22.6093L56.5343 21.8688L56.5272 21.8626L55.8621 22.6093ZM59.4027 27.6624L58.4846 28.0588L58.4868 28.0637L59.4027 27.6624ZM56.3778 43.509L55.7065 42.7677L54.4485 43.9069L56.0546 44.4553L56.3778 43.509ZM63.0464 48.562L62.218 49.1222L62.2242 49.1312L63.0464 48.562ZM61.1214 67.3992L60.4227 66.6837L60.4143 66.6921L61.1214 67.3992ZM55.1747 71.0773L55.4409 72.0412L55.457 72.0367L55.4729 72.0318L55.1747 71.0773ZM42.0092 41.7903H41.0092V42.7903H42.0092V41.7903ZM51.0497 39.8309L51.7385 40.5559L51.7388 40.5556L51.0497 39.8309ZM51.0154 28.3155L50.3385 29.0517L50.3451 29.0576L51.0154 28.3155ZM42.0092 26.3561V25.3561H41.0092V26.3561H42.0092ZM42.0092 64.5461H41.0092V65.5461H42.0092V64.5461ZM54.934 62.4149L55.5763 63.1815L55.5856 63.1735L54.934 62.4149ZM55.0372 50.7964L54.361 51.5331L54.3655 51.5372L55.0372 50.7964ZM42.0092 48.4933V47.4933H41.0092V48.4933H42.0092ZM35 72.0741V19H33V72.0741H35ZM34 20H41.9749V18H34V20ZM41.9749 20C45.488 20 48.2222 20.2733 50.2129 20.7926L50.7178 18.8574C48.4919 18.2767 45.5658 18 41.9749 18V20ZM50.2155 20.7933C52.2115 21.3084 53.8629 22.1679 55.1971 23.3561L56.5272 21.8626C54.9281 20.4383 52.9817 19.4416 50.7152 18.8567L50.2155 20.7933ZM55.19 23.3498C56.5646 24.5975 57.6651 26.1609 58.4847 28.0588L60.3208 27.2659C59.3987 25.1306 58.1388 23.3253 56.5343 21.8689L55.19 23.3498ZM58.4868 28.0637C59.3289 29.9854 59.7433 31.9117 59.7433 33.8498H61.7433C61.7433 31.617 61.264 29.4184 60.3186 27.261L58.4868 28.0637ZM59.7433 33.8498C59.7433 37.3613 58.4152 40.315 55.7065 42.7677L57.049 44.2502C60.1611 41.4322 61.7433 37.9464 61.7433 33.8498H59.7433ZM56.0546 44.4553C58.673 45.3494 60.7162 46.9011 62.218 49.1222L63.8748 48.0019C62.1225 45.4105 59.7199 43.5935 56.7009 42.5626L56.0546 44.4553ZM62.2242 49.1312C63.7478 51.332 64.5214 53.9022 64.5214 56.8806H66.5214C66.5214 53.5342 65.6449 50.5586 63.8686 47.9928L62.2242 49.1312ZM64.5214 56.8806C64.5214 60.7627 63.1608 64.0099 60.4228 66.6838L61.8201 68.1147C64.9486 65.0595 66.5214 61.2943 66.5214 56.8806H64.5214ZM60.4143 66.6921C58.7544 68.3521 56.9095 69.4874 54.8764 70.1228L55.4729 72.0318C57.8397 71.2921 59.9594 69.9755 61.8285 68.1063L60.4143 66.6921ZM54.9084 70.1134C52.6183 70.7459 49.7016 71.0741 46.1342 71.0741V73.0741C49.8083 73.0741 52.9186 72.7378 55.4409 72.0412L54.9084 70.1134ZM46.1342 71.0741H34V73.0741H46.1342V71.0741ZM42.0092 42.7903H44.5186V40.7903H42.0092V42.7903ZM44.5186 42.7903C47.6132 42.7903 50.0959 42.1163 51.7385 40.5559L50.361 39.1059C49.2536 40.1579 47.3822 40.7903 44.5186 40.7903V42.7903ZM51.7388 40.5556C53.3946 38.9813 54.1466 36.7335 54.1466 33.9873H52.1466C52.1466 36.3743 51.5007 38.0223 50.3607 39.1062L51.7388 40.5556ZM54.1466 33.9873C54.1466 31.2977 53.3757 29.0998 51.6856 27.5734L50.3451 29.0576C51.4967 30.0977 52.1466 31.6811 52.1466 33.9873H54.1466ZM51.6921 27.5793C50.024 26.0457 47.682 25.3561 44.828 25.3561V27.3561C47.3821 27.3561 49.165 27.9728 50.3386 29.0516L51.6921 27.5793ZM44.828 25.3561H42.0092V27.3561H44.828V25.3561ZM41.0092 26.3561V41.7903H43.0092V26.3561H41.0092ZM42.0092 65.5461H46.9592V63.5461H42.0092V65.5461ZM46.9592 65.5461C50.6758 65.5461 53.6168 64.8232 55.5763 63.1814L54.2918 61.6484C52.8597 62.8483 50.4841 63.5461 46.9592 63.5461V65.5461ZM55.5856 63.1735C57.5947 61.4478 58.6152 59.2226 58.6152 56.5713H56.6152C56.6152 58.6407 55.8483 60.3113 54.2824 61.6564L55.5856 63.1735ZM58.6152 56.5713C58.6152 53.9935 57.6337 51.8007 55.7088 50.0555L54.3655 51.5372C55.8781 52.9086 56.6152 54.5658 56.6152 56.5713H58.6152ZM55.7133 50.0596C53.7492 48.257 50.4264 47.4933 46.0654 47.4933V49.4933C50.321 49.4933 52.9793 50.265 54.361 51.5331L55.7133 50.0596ZM46.0654 47.4933H42.0092V49.4933H46.0654V47.4933ZM41.0092 48.4933V64.5461H43.0092V48.4933H41.0092Z" fill="#FF847C" mask="url(#path-4-outside-1_29_205)"/>
<defs>
<filter id="filter0_b_29_205" x="6.44617" y="7.5" width="84.1101" height="78.0291" filterUnits="userSpaceOnUse" color-interpolation-filters="sRGB">
<feFlood flood-opacity="0" result="BackgroundImageFix"/>
<feGaussianBlur in="BackgroundImageFix" stdDeviation="2"/>
<feComposite in2="SourceAlpha" operator="in" result="effect1_backgroundBlur_29_205"/>
<feBlend mode="normal" in="SourceGraphic" in2="effect1_backgroundBlur_29_205" result="shape"/>
</filter>
</defs>
</svg>
